HIERARCHY
ROOT Pelvis
{
	OFFSET 0.000000 0.000000 0.000000
	CHANNELS 6 Xposition Yposition Zposition Xrotation Yrotation Zrotation
	JOINT LeftUpLeg_virtual
	{
		OFFSET 0.000000 0.000000 0.000000
		CHANNELS 3 Xrotation Yrotation Zrotation
		JOINT LeftUpLeg
		{
			OFFSET 18.735201 -5.666702 -4.541200
			CHANNELS 3 Xrotation Yrotation Zrotation
			JOINT LeftLeg
			{
				OFFSET -0.021200 -31.938179 0.493100
				CHANNELS 3 Xrotation Yrotation Zrotation
				JOINT LeftFoot
				{
					OFFSET 0.021200 -31.938179 -4.336299
					CHANNELS 3 Xrotation Yrotation Zrotation
					JOINT LeftToeBase
					{
						OFFSET 0.943001 -26.722000 15.023500
						CHANNELS 3 Xrotation Yrotation Zrotation
						End Site
						{
							OFFSET 0 0 0
						}
					}
				}
			}
		}
	}
	JOINT RightUpLeg_virtual
	{
		OFFSET 0.000000 0.000000 0.000000
		CHANNELS 3 Xrotation Yrotation Zrotation
		JOINT RightUpLeg
		{
			OFFSET -18.735201 -5.666702 -4.541200
			CHANNELS 3 Xrotation Yrotation Zrotation
			JOINT RightLeg
			{
				OFFSET 0.018946 -31.938133 0.493100
				CHANNELS 3 Xrotation Yrotation Zrotation
				JOINT RightFoot
				{
					OFFSET -0.018946 -31.938126 -4.336299
					CHANNELS 3 Xrotation Yrotation Zrotation
					JOINT RightToeBase
					{
						OFFSET -0.943001 -26.722004 15.023500
						CHANNELS 3 Xrotation Yrotation Zrotation
						End Site
						{
							OFFSET 0 0 0
						}
					}
				}
			}
		}
	}
	JOINT Hips_virtual
	{
		OFFSET 0.000000 0.000000 0.000000
		CHANNELS 3 Xrotation Yrotation Zrotation
		JOINT Hips
		{
			OFFSET -0.000000 -0.000000 -0.000000
			CHANNELS 3 Xrotation Yrotation Zrotation
			JOINT Spine
			{
				OFFSET 0.000000 10.199997 -0.299500
				CHANNELS 3 Xrotation Yrotation Zrotation
				JOINT Spine1
				{
					OFFSET 0.000000 11.900002 -1.516600
					CHANNELS 3 Xrotation Yrotation Zrotation
					JOINT Spine2
					{
						OFFSET 0.000000 13.600006 -2.842500
						CHANNELS 3 Xrotation Yrotation Zrotation
						JOINT Neck_virtual
						{
							OFFSET 0.000000 0.000000 0.000000
							CHANNELS 3 Xrotation Yrotation Zrotation
							JOINT Neck
							{
								OFFSET 0.000000 9.624100 -2.890100
								CHANNELS 3 Xrotation Yrotation Zrotation
								JOINT Head
								{
									OFFSET 0.000000 14.068802 -1.351900
									CHANNELS 3 Xrotation Yrotation Zrotation
									End Site
									{
										OFFSET 0 0 0
									}
								}
							}
						}
						JOINT LeftShoulder_virtual
						{
							OFFSET 0.000000 0.000000 0.000000
							CHANNELS 3 Xrotation Yrotation Zrotation
							JOINT LeftShoulder
							{
								OFFSET 15.263000 10.923401 -0.547700
								CHANNELS 3 Xrotation Yrotation Zrotation
								JOINT LeftArm
								{
									OFFSET 25.438599 -2.830597 -13.032500
									CHANNELS 3 Xrotation Yrotation Zrotation
									JOINT LeftForeArm
									{
										OFFSET 29.960503 0.000000 0.000000
										CHANNELS 3 Xrotation Yrotation Zrotation
										JOINT LeftHand
										{
											OFFSET 27.849251 0.000000 0.000000
											CHANNELS 3 Xrotation Yrotation Zrotation
											End Site
											{
												OFFSET 0 0 0
											}
										}
									}
								}
							}
						}
						JOINT RightShoulder_virtual
						{
							OFFSET 0.000000 0.000000 0.000000
							CHANNELS 3 Xrotation Yrotation Zrotation
							JOINT RightShoulder
							{
								OFFSET -15.263000 10.923401 -0.547700
								CHANNELS 3 Xrotation Yrotation Zrotation
								JOINT RightArm
								{
									OFFSET -25.438599 -2.830597 -13.032500
									CHANNELS 3 Xrotation Yrotation Zrotation
									JOINT RightForeArm
									{
										OFFSET -29.960503 0.000000 0.000000
										CHANNELS 3 Xrotation Yrotation Zrotation
										JOINT RightHand
										{
											OFFSET -27.849251 0.000000 0.000000
											CHANNELS 3 Xrotation Yrotation Zrotation
											End Site
											{
												OFFSET 0 0 0
											}
										}
									}
								}
							}
						}
					}
				}
			}
		}
	}
}
MOTION
Frames: 6
Frame Time: 0.03333333
-6.314782 90.472023 9.374367 0.000000 0.000000 0.000000 -0.572347 -16.977904 1.043578 -21.228387 -7.429019 12.864082 34.621273 -0.681792 -3.000668 -0.805501 3.046400 -9.334192 0.000000 0.000000 0.000000 -0.877530 -15.404602 1.382005 -16.174634 -3.044038 -19.460315 29.866307 5.701048 0.536174 -10.115340 -5.543797 7.474129 0.000000 0.000000 0.000000 -1.130686 -15.495896 1.238965 -0.743177 -0.068444 -0.091057 3.346240 0.529207 0.259646 1.812667 0.711090 -0.174555 0.000000 0.000000 0.000000 0.374156 1.529678 -1.077784 -0.463942 -1.929811 0.519266 0.000000 0.000000 0.000000 0.327674 1.387233 -0.435953 -0.912796 6.191279 -7.671325 18.393045 -22.205305 -43.026196 -5.775157 -27.005485 -10.475884 0.000000 0.000000 0.000000 0.882072 2.051718 -0.484324 8.074086 2.691575 5.072085 1.187495 5.026640 57.221003 10.349075 32.073547 7.180901 0.000000 0.000000 0.000000 
-6.588499 90.520508 9.245174 0.000000 0.000000 0.000000 -0.728405 -16.920755 1.039052 -21.409513 -6.967143 12.488133 34.615573 -0.337582 -3.417888 -0.119042 3.474273 -8.717211 0.000000 0.000000 0.000000 -0.811264 -15.554989 1.347133 -17.227462 -2.583445 -18.908168 29.373369 5.666661 0.452016 -9.865144 -5.241482 7.059179 0.000000 0.000000 0.000000 -1.128811 -15.807530 1.285374 -0.722560 -0.127682 -0.069719 3.345741 0.334187 0.272634 1.658026 0.493646 -0.070778 0.000000 0.000000 0.000000 0.354951 1.380753 -0.944550 -0.391617 -1.942290 0.548856 0.000000 0.000000 0.000000 0.267959 1.190124 -0.441263 -0.900677 5.899090 -7.607706 18.141039 -22.592391 -43.196691 -5.825801 -27.643611 -10.639922 0.000000 0.000000 0.000000 0.916900 1.930277 -0.420755 7.975171 2.611301 5.087878 1.534597 4.969561 57.312828 10.293519 32.723013 7.081817 0.000000 0.000000 0.000000 
-7.068088 90.689583 8.990036 0.000000 0.000000 0.000000 -0.848243 -17.176580 1.320232 -20.708754 -5.933689 11.734947 33.306448 -0.615386 -4.113171 -1.396094 2.946240 -8.654191 0.000000 0.000000 0.000000 -0.748194 -16.002751 1.583915 -19.278364 -1.723463 -18.299856 30.940340 5.366562 0.217844 -8.276459 -4.925179 6.386929 0.000000 0.000000 0.000000 -1.108017 -16.324808 1.569351 -0.728102 -0.112315 -0.076018 3.553384 0.092118 0.086087 1.428085 0.223219 0.048815 0.000000 0.000000 0.000000 0.288860 1.131568 -0.829921 -0.274771 -1.925636 0.583768 0.000000 0.000000 0.000000 0.039000 0.888436 -0.473869 -0.984063 5.343566 -7.667616 18.077846 -22.856834 -43.370199 -6.106566 -28.588926 -10.975398 0.000000 0.000000 0.000000 0.916529 1.696494 -0.327966 7.754051 2.710053 5.153718 1.804946 5.337167 57.241626 10.272632 33.745895 6.831411 0.000000 0.000000 0.000000 
-7.595905 90.900642 8.800713 0.000000 0.000000 0.000000 -0.906859 -17.624752 1.782788 -18.716943 -4.318932 10.757959 30.315388 -1.238556 -5.075117 -3.794205 1.578279 -9.080217 0.000000 0.000000 0.000000 -0.782741 -16.548718 1.924558 -22.182194 -0.678466 -17.863178 35.150506 4.987533 -0.039452 -6.341331 -4.700646 5.060191 0.000000 0.000000 0.000000 -1.092873 -16.829747 1.947733 -0.758692 -0.063009 -0.100638 3.961884 -0.192133 -0.231824 1.164341 -0.082024 0.155561 0.000000 0.000000 0.000000 0.126619 0.807879 -0.733033 -0.108927 -1.885749 0.611762 0.000000 0.000000 0.000000 -0.332780 0.527888 -0.496660 -1.125299 4.645365 -7.809054 18.177913 -22.978797 -43.409619 -6.523000 -29.582495 -11.429943 0.000000 0.000000 0.000000 0.908933 1.371604 -0.231411 7.432747 3.002132 5.244860 1.887153 6.080846 57.019007 10.263249 34.623236 6.469874 0.000000 0.000000 0.000000 
-8.047564 91.112259 8.741890 0.000000 0.000000 0.000000 -1.013086 -18.169456 2.188436 -15.739152 -1.863597 9.777028 26.001997 -1.278238 -6.355277 -5.535961 0.351355 -8.797784 0.000000 0.000000 0.000000 -1.046165 -17.029017 2.191872 -25.337497 0.193718 -17.500577 41.128910 4.681455 -0.028721 -6.066435 -4.404161 3.336579 0.000000 0.000000 0.000000 -1.156746 -17.349579 2.247410 -0.801854 -0.038034 -0.112834 4.520209 -0.543942 -0.538526 0.910414 -0.422108 0.253534 0.000000 0.000000 0.000000 -0.121543 0.444928 -0.631102 0.117903 -1.844108 0.632110 0.000000 0.000000 0.000000 -0.766702 0.132764 -0.494926 -1.279812 3.874266 -8.059642 18.532767 -23.065544 -43.166147 -6.988093 -30.511684 -11.966501 0.000000 0.000000 0.000000 0.878747 0.975755 -0.132519 7.069349 3.458699 5.348373 1.777862 7.100897 56.695833 10.223140 35.062032 6.048457 0.000000 0.000000 0.000000 
-8.249260 91.220589 8.878925 0.000000 0.000000 0.000000 -1.199162 -18.711539 2.315344 -12.672561 1.056755 8.729495 21.806146 -0.231969 -7.530191 -5.932344 0.142791 -6.471843 0.000000 0.000000 0.000000 -1.402467 -17.495714 2.241234 -27.918733 0.070883 -17.258679 46.409500 4.583957 0.733311 -8.055653 -3.706199 2.193203 0.000000 0.000000 0.000000 -1.394080 -17.882687 2.305624 -0.855886 -0.045055 -0.107526 5.152973 -0.950097 -0.733625 0.706274 -0.765087 0.352518 0.000000 0.000000 0.000000 -0.438570 0.062558 -0.487293 0.408101 -1.809134 0.651171 0.000000 0.000000 0.000000 -1.180678 -0.268463 -0.451600 -1.399218 3.113923 -8.361146 19.291270 -23.184391 -42.584679 -7.414385 -31.298994 -12.573659 0.000000 0.000000 0.000000 0.764285 0.557179 -0.026716 6.707802 4.083277 5.521550 1.665190 8.180977 56.361847 10.129781 35.208826 5.604011 0.000000 0.000000 0.000000 
